  0
SECTION
  2
HEADER
  9
$ACADVER
  1
AC1014
  9
$HANDSEED
  5
FFFF
  9
$INSUNITS
 70
     4
  9
$MEASUREMENT
 70
     1
  0
ENDSEC
  0
SECTION
  2
TABLES
  0
TABLE
  2
VPORT
  5
8
330
0
100
AcDbSymbolTable
 70
     4
  0
VPORT
  5
2E
330
8
100
AcDbSymbolTableRecord
100
AcDbViewportTableRecord
  2
*ACTIVE
 70
     0
 10
0.0
 20
0.0
 11
1.0
 21
1.0
 12
210.0
 22
148.5
 13
0.0
 23
0.0
 14
10.0
 24
10.0
 15
10.0
 25
10.0
 16
0.0
 26
0.0
 36
1.0
 17
0.0
 27
0.0
 37
0.0
 40
341.0
 41
1.24
 42
50.0
 43
0.0
 44
0.0
 50
0.0
 51
0.0
 71
     0
 72
   100
 73
     1
 74
     3
 75
     0
 76
     0
 77
     0
 78
     0
  0
ENDTAB
  0
TABLE
  2
LTYPE
  5
5
330
0
100
AcDbSymbolTable
 70
     1
  0
LTYPE
  5
14
330
5
100
AcDbSymbolTableRecord
100
AcDbLinetypeTableRecord
  2
BYBLOCK
 70
     0
  3

 72
    65
 73
     0
 40
0.0
  0
LTYPE
  5
15
330
5
100
AcDbSymbolTableRecord
100
AcDbLinetypeTableRecord
  2
BYLAYER
 70
     0
  3

 72
    65
 73
     0
 40
0.0
  0
LTYPE
  5
16
330
5
100
AcDbSymbolTableRecord
100
AcDbLinetypeTableRecord
  2
CONTINUOUS
 70
     0
  3
Solid line
 72
    65
 73
     0
 40
0.0
  0
ENDTAB
  0
TABLE
  2
LAYER
  5
2
100
AcDbSymbolTable
 70
2
  0
LAYER
  5
50
100
AcDbSymbolTableRecord
100
AcDbLayerTableRecord
  2
0
 70
0
  6
CONTINUOUS
  0
LAYER
  5
51
100
AcDbSymbolTableRecord
100
AcDbLayerTableRecord
  2
Capa_1
 70
0
  6
CONTINUOUS
  0
ENDTAB
  0
TABLE
  2
STYLE
  5
3
330
0
100
AcDbSymbolTable
 70
     1
  0
STYLE
  5
11
330
3
100
AcDbSymbolTableRecord
100
AcDbTextStyleTableRecord
  2
STANDARD
 70
     0
 40
0.0
 41
1.0
 50
0.0
 71
     0
 42
2.5
  3
txt
  4

  0
ENDTAB
  0
TABLE
  2
VIEW
  5
6
330
0
100
AcDbSymbolTable
 70
     0
  0
ENDTAB
  0
TABLE
  2
UCS
  5
7
330
0
100
AcDbSymbolTable
 70
     0
  0
ENDTAB
  0
TABLE
  2
APPID
  5
9
330
0
100
AcDbSymbolTable
 70
     2
  0
APPID
  5
12
330
9
100
AcDbSymbolTableRecord
100
AcDbRegAppTableRecord
  2
ACAD
 70
     0
  0
ENDTAB
  0
TABLE
  2
DIMSTYLE
  5
A
330
0
100
AcDbSymbolTable
 70
     1
  0
DIMSTYLE
105
27
330
A
100
AcDbSymbolTableRecord
100
AcDbDimStyleTableRecord
  2
ISO-25
 70
     0
  3

  4

  5

  6

  7

 40
1.0
 41
2.5
 42
0.625
 43
3.75
 44
1.25
 45
0.0
 46
0.0
 47
0.0
 48
0.0
140
2.5
141
2.5
142
0.0
143
0.03937007874016
144
1.0
145
0.0
146
1.0
147
0.625
 71
     0
 72
     0
 73
     0
 74
     0
 75
     0
 76
     0
 77
     1
 78
     8
170
     0
171
     3
172
     1
173
     0
174
     0
175
     0
176
     0
177
     0
178
     0
270
     2
271
     2
272
     2
273
     2
274
     3
340
11
275
     0
280
     0
281
     0
282
     0
283
     0
284
     8
285
     0
286
     0
287
     3
288
     0
  0
ENDTAB
  0
TABLE
  2
BLOCK_RECORD
  5
1
330
0
100
AcDbSymbolTable
 70
     1
  0
BLOCK_RECORD
  5
1F
330
1
100
AcDbSymbolTableRecord
100
AcDbBlockTableRecord
  2
*MODEL_SPACE
  0
BLOCK_RECORD
  5
1B
330
1
100
AcDbSymbolTableRecord
100
AcDbBlockTableRecord
  2
*PAPER_SPACE
  0
ENDTAB
  0
ENDSEC
  0
SECTION
  2
BLOCKS
  0
BLOCK
  5
20
330
1F
100
AcDbEntity
  8
0
100
AcDbBlockBegin
  2
*MODEL_SPACE
 70
     0
 10
0.0
 20
0.0
 30
0.0
  3
*MODEL_SPACE
  1

  0
ENDBLK
  5
21
330
1F
100
AcDbEntity
  8
0
100
AcDbBlockEnd
  0
BLOCK
  5
1C
330
1B
100
AcDbEntity
 67
     1
  8
0
100
AcDbBlockBegin
  2
*PAPER_SPACE
  1

  0
ENDBLK
  5
1D
330
1B
100
AcDbEntity
 67
     1
  8
0
100
AcDbBlockEnd
  0
ENDSEC
  0
SECTION
  2
ENTITIES
  0
LWPOLYLINE
  5
100
100
AcDbEntity
  8
Capa_1
 62
7
100
AcDbPolyline
 90
4
 70
1
 10
19.780479
 20
82.140608
 30
0.0
 10
119.340118
 20
82.140608
 30
0.0
 10
119.340118
 20
32.580969
 30
0.0
 10
19.780479
 20
32.580969
 30
0.0
  0
SPLINE
  5
101
100
AcDbEntity
  8
Capa_1
 62
7
100
AcDbSpline
 70
8
 71
3
 72
8
 73
4
 74
0
 40
0
 40
0
 40
0
 40
0
 40
1
 40
1
 40
1
 40
1
 10
399.276920
 20
29.586210
 30
0.0
 10
403.270660
 20
26.868890
 30
0.0
 10
409.446160
 20
25.398247
 30
0.0
 10
414.276520
 20
25.360628
 30
0.0
  0
SPLINE
  5
102
100
AcDbEntity
  8
Capa_1
 62
7
100
AcDbSpline
 70
8
 71
3
 72
8
 73
4
 74
0
 40
0
 40
0
 40
0
 40
0
 40
1
 40
1
 40
1
 40
1
 10
414.276520
 20
25.360628
 30
0.0
 10
419.107050
 20
25.398148
 30
0.0
 10
425.283280
 20
26.868792
 30
0.0
 10
429.277160
 20
29.586210
 30
0.0
  0
LWPOLYLINE
  5
103
100
AcDbEntity
  8
Capa_1
 62
7
100
AcDbPolyline
 90
9
 70
0
 10
15.000118
 20
94.870081
 30
0.0
 10
15.000118
 20
59.328064
 30
0.0
 10
15.000118
 20
40.542131
 30
0.0
 10
15.000118
 20
5.000114
 30
0.0
 10
30.000236
 20
5.000114
 30
0.0
 10
30.000236
 20
40.542131
 30
0.0
 10
364.706940
 20
40.542131
 30
0.0
 10
364.706940
 20
40.188664
 30
0.0
 10
399.276920
 20
29.586210
 30
0.0
  0
SPLINE
  5
104
100
AcDbEntity
  8
Capa_1
 62
7
100
AcDbSpline
 70
8
 71
3
 72
8
 73
4
 74
0
 40
0
 40
0
 40
0
 40
0
 40
1
 40
1
 40
1
 40
1
 10
828.855350
 20
40.454797
 30
0.0
 10
834.379900
 20
40.454859
 30
0.0
 10
838.858280
 20
44.711122
 30
0.0
 10
838.857840
 20
49.961194
 30
0.0
  0
SPLINE
  5
105
100
AcDbEntity
  8
Capa_1
 62
7
100
AcDbSpline
 70
8
 71
3
 72
8
 73
4
 74
0
 40
0
 40
0
 40
0
 40
0
 40
1
 40
1
 40
1
 40
1
 10
838.857840
 20
49.961194
 30
0.0
 10
838.857680
 20
55.210862
 30
0.0
 10
834.379480
 20
59.466495
 30
0.0
 10
828.855350
 20
59.466557
 30
0.0
  0
LWPOLYLINE
  5
106
100
AcDbEntity
  8
Capa_1
 62
7
100
AcDbPolyline
 90
5
 70
0
 10
429.277160
 20
29.586210
 30
0.0
 10
464.277090
 20
39.586633
 30
0.0
 10
464.277090
 20
40.800513
 30
0.0
 10
813.980810
 20
40.800513
 30
0.0
 10
828.855350
 20
40.454797
 30
0.0
  0
SPLINE
  5
107
100
AcDbEntity
  8
Capa_1
 62
7
100
AcDbSpline
 70
8
 71
3
 72
8
 73
4
 74
0
 40
0
 40
0
 40
0
 40
0
 40
1
 40
1
 40
1
 40
1
 10
429.277160
 20
69.586353
 30
0.0
 10
425.167680
 20
72.532894
 30
0.0
 10
419.333130
 20
74.129756
 30
0.0
 10
414.276520
 20
74.156099
 30
0.0
  0
SPLINE
  5
108
100
AcDbEntity
  8
Capa_1
 62
7
100
AcDbSpline
 70
8
 71
3
 72
8
 73
4
 74
0
 40
0
 40
0
 40
0
 40
0
 40
1
 40
1
 40
1
 40
1
 10
414.276520
 20
74.156099
 30
0.0
 10
409.231750
 20
74.122599
 30
0.0
 10
403.376770
 20
72.526080
 30
0.0
 10
399.276920
 20
69.586353
 30
0.0
  0
LWPOLYLINE
  5
109
100
AcDbEntity
  8
Capa_1
 62
7
100
AcDbPolyline
 90
5
 70
0
 10
828.855350
 20
59.466557
 30
0.0
 10
813.980810
 20
59.590063
 30
0.0
 10
813.980810
 20
59.586446
 30
0.0
 10
464.277090
 20
59.586446
 30
0.0
 10
429.277160
 20
69.586353
 30
0.0
  0
SPLINE
  5
10a
100
AcDbEntity
  8
Capa_1
 62
7
100
AcDbSpline
 70
8
 71
3
 72
8
 73
4
 74
0
 40
0
 40
0
 40
0
 40
0
 40
1
 40
1
 40
1
 40
1
 10
414.277040
 20
64.895166
 30
0.0
 10
416.277040
 20
64.895166
 30
0.0
 10
417.276730
 20
64.586140
 30
0.0
 10
419.276730
 20
64.586141
 30
0.0
  0
SPLINE
  5
10b
100
AcDbEntity
  8
Capa_1
 62
7
100
AcDbSpline
 70
8
 71
3
 72
8
 73
4
 74
0
 40
0
 40
0
 40
0
 40
0
 40
1
 40
1
 40
1
 40
1
 10
419.276730
 20
64.586141
 30
0.0
 10
417.276730
 20
64.586140
 30
0.0
 10
416.277040
 20
64.277633
 30
0.0
 10
414.277040
 20
64.277633
 30
0.0
  0
SPLINE
  5
10c
100
AcDbEntity
  8
Capa_1
 62
7
100
AcDbSpline
 70
8
 71
3
 72
8
 73
4
 74
0
 40
0
 40
0
 40
0
 40
0
 40
1
 40
1
 40
1
 40
1
 10
414.277040
 20
64.277633
 30
0.0
 10
412.277040
 20
64.277633
 30
0.0
 10
411.276830
 20
64.586140
 30
0.0
 10
409.276830
 20
64.586141
 30
0.0
  0
SPLINE
  5
10d
100
AcDbEntity
  8
Capa_1
 62
7
100
AcDbSpline
 70
8
 71
3
 72
8
 73
4
 74
0
 40
0
 40
0
 40
0
 40
0
 40
1
 40
1
 40
1
 40
1
 10
409.276830
 20
64.586141
 30
0.0
 10
411.276830
 20
64.586140
 30
0.0
 10
412.064010
 20
64.895166
 30
0.0
 10
414.277040
 20
64.895166
 30
0.0
  0
LWPOLYLINE
  5
10e
100
AcDbEntity
  8
Capa_1
 62
7
100
AcDbPolyline
 90
6
 70
0
 10
399.276920
 20
69.586353
 30
0.0
 10
364.706940
 20
59.328064
 30
0.0
 10
30.000236
 20
59.328064
 30
0.0
 10
30.000236
 20
94.870081
 30
0.0
 10
15.000118
 20
94.870081
 30
0.0
 10
15.000118
 20
94.870081
 30
0.0
  0
SPLINE
  5
10f
100
AcDbEntity
  8
Capa_1
 62
7
100
AcDbSpline
 70
8
 71
3
 72
8
 73
4
 74
0
 40
0
 40
0
 40
0
 40
0
 40
1
 40
1
 40
1
 40
1
 10
406.277010
 20
62.895288
 30
0.0
 10
408.277010
 20
62.895288
 30
0.0
 10
409.277220
 20
62.586262
 30
0.0
 10
411.277220
 20
62.586263
 30
0.0
  0
SPLINE
  5
110
100
AcDbEntity
  8
Capa_1
 62
7
100
AcDbSpline
 70
8
 71
3
 72
8
 73
4
 74
0
 40
0
 40
0
 40
0
 40
0
 40
1
 40
1
 40
1
 40
1
 10
411.277220
 20
62.586263
 30
0.0
 10
409.277220
 20
62.586263
 30
0.0
 10
408.277010
 20
62.277755
 30
0.0
 10
406.277010
 20
62.277755
 30
0.0
  0
SPLINE
  5
111
100
AcDbEntity
  8
Capa_1
 62
7
100
AcDbSpline
 70
8
 71
3
 72
8
 73
4
 74
0
 40
0
 40
0
 40
0
 40
0
 40
1
 40
1
 40
1
 40
1
 10
406.277010
 20
62.277755
 30
0.0
 10
404.277010
 20
62.277755
 30
0.0
 10
403.276800
 20
62.586262
 30
0.0
 10
401.276800
 20
62.586263
 30
0.0
  0
SPLINE
  5
112
100
AcDbEntity
  8
Capa_1
 62
7
100
AcDbSpline
 70
8
 71
3
 72
8
 73
4
 74
0
 40
0
 40
0
 40
0
 40
0
 40
1
 40
1
 40
1
 40
1
 10
401.276800
 20
62.586263
 30
0.0
 10
403.276800
 20
62.586263
 30
0.0
 10
404.063980
 20
62.895288
 30
0.0
 10
406.277010
 20
62.895288
 30
0.0
  0
LWPOLYLINE
  5
113
100
AcDbEntity
  8
Capa_1
 62
7
100
AcDbPolyline
 90
1
 70
1
 10
414.277040
 20
64.895166
 30
0.0
  0
SPLINE
  5
114
100
AcDbEntity
  8
Capa_1
 62
7
100
AcDbSpline
 70
8
 71
3
 72
8
 73
4
 74
0
 40
0
 40
0
 40
0
 40
0
 40
1
 40
1
 40
1
 40
1
 10
422.277070
 20
62.895288
 30
0.0
 10
424.277070
 20
62.895288
 30
0.0
 10
425.276760
 20
62.586262
 30
0.0
 10
427.276760
 20
62.586263
 30
0.0
  0
SPLINE
  5
115
100
AcDbEntity
  8
Capa_1
 62
7
100
AcDbSpline
 70
8
 71
3
 72
8
 73
4
 74
0
 40
0
 40
0
 40
0
 40
0
 40
1
 40
1
 40
1
 40
1
 10
427.276760
 20
62.586263
 30
0.0
 10
425.276760
 20
62.586262
 30
0.0
 10
424.277070
 20
62.277755
 30
0.0
 10
422.277070
 20
62.277755
 30
0.0
  0
SPLINE
  5
116
100
AcDbEntity
  8
Capa_1
 62
7
100
AcDbSpline
 70
8
 71
3
 72
8
 73
4
 74
0
 40
0
 40
0
 40
0
 40
0
 40
1
 40
1
 40
1
 40
1
 10
422.277070
 20
62.277755
 30
0.0
 10
420.277070
 20
62.277755
 30
0.0
 10
419.276860
 20
62.586262
 30
0.0
 10
417.276860
 20
62.586263
 30
0.0
  0
SPLINE
  5
117
100
AcDbEntity
  8
Capa_1
 62
7
100
AcDbSpline
 70
8
 71
3
 72
8
 73
4
 74
0
 40
0
 40
0
 40
0
 40
0
 40
1
 40
1
 40
1
 40
1
 10
417.276860
 20
62.586263
 30
0.0
 10
419.276860
 20
62.586262
 30
0.0
 10
420.064040
 20
62.895288
 30
0.0
 10
422.277070
 20
62.895288
 30
0.0
  0
LWPOLYLINE
  5
118
100
AcDbEntity
  8
Capa_1
 62
7
100
AcDbPolyline
 90
1
 70
1
 10
406.277010
 20
62.895288
 30
0.0
  0
SPLINE
  5
119
100
AcDbEntity
  8
Capa_1
 62
7
100
AcDbSpline
 70
8
 71
3
 72
8
 73
4
 74
0
 40
0
 40
0
 40
0
 40
0
 40
1
 40
1
 40
1
 40
1
 10
398.276980
 20
60.894893
 30
0.0
 10
400.276980
 20
60.894893
 30
0.0
 10
401.277190
 20
60.586385
 30
0.0
 10
403.277190
 20
60.586385
 30
0.0
  0
SPLINE
  5
11a
100
AcDbEntity
  8
Capa_1
 62
7
100
AcDbSpline
 70
8
 71
3
 72
8
 73
4
 74
0
 40
0
 40
0
 40
0
 40
0
 40
1
 40
1
 40
1
 40
1
 10
403.277190
 20
60.586385
 30
0.0
 10
401.277190
 20
60.586385
 30
0.0
 10
400.276980
 20
60.277360
 30
0.0
 10
398.276980
 20
60.277360
 30
0.0
  0
SPLINE
  5
11b
100
AcDbEntity
  8
Capa_1
 62
7
100
AcDbSpline
 70
8
 71
3
 72
8
 73
4
 74
0
 40
0
 40
0
 40
0
 40
0
 40
1
 40
1
 40
1
 40
1
 10
398.276980
 20
60.277360
 30
0.0
 10
396.276980
 20
60.277360
 30
0.0
 10
395.276770
 20
60.586385
 30
0.0
 10
393.276770
 20
60.586385
 30
0.0
  0
SPLINE
  5
11c
100
AcDbEntity
  8
Capa_1
 62
7
100
AcDbSpline
 70
8
 71
3
 72
8
 73
4
 74
0
 40
0
 40
0
 40
0
 40
0
 40
1
 40
1
 40
1
 40
1
 10
393.276770
 20
60.586385
 30
0.0
 10
395.276770
 20
60.586385
 30
0.0
 10
396.063950
 20
60.894893
 30
0.0
 10
398.276980
 20
60.894893
 30
0.0
  0
LWPOLYLINE
  5
11d
100
AcDbEntity
  8
Capa_1
 62
7
100
AcDbPolyline
 90
1
 70
1
 10
422.277070
 20
62.895288
 30
0.0
  0
SPLINE
  5
11e
100
AcDbEntity
  8
Capa_1
 62
7
100
AcDbSpline
 70
8
 71
3
 72
8
 73
4
 74
0
 40
0
 40
0
 40
0
 40
0
 40
1
 40
1
 40
1
 40
1
 10
414.277040
 20
60.894893
 30
0.0
 10
416.277040
 20
60.894893
 30
0.0
 10
417.276730
 20
60.586385
 30
0.0
 10
419.276730
 20
60.586385
 30
0.0
  0
SPLINE
  5
11f
100
AcDbEntity
  8
Capa_1
 62
7
100
AcDbSpline
 70
8
 71
3
 72
8
 73
4
 74
0
 40
0
 40
0
 40
0
 40
0
 40
1
 40
1
 40
1
 40
1
 10
419.276730
 20
60.586385
 30
0.0
 10
417.276730
 20
60.586385
 30
0.0
 10
416.277040
 20
60.277360
 30
0.0
 10
414.277040
 20
60.277360
 30
0.0
  0
SPLINE
  5
120
100
AcDbEntity
  8
Capa_1
 62
7
100
AcDbSpline
 70
8
 71
3
 72
8
 73
4
 74
0
 40
0
 40
0
 40
0
 40
0
 40
1
 40
1
 40
1
 40
1
 10
414.277040
 20
60.277360
 30
0.0
 10
412.277040
 20
60.277360
 30
0.0
 10
411.276830
 20
60.586385
 30
0.0
 10
409.276830
 20
60.586385
 30
0.0
  0
SPLINE
  5
121
100
AcDbEntity
  8
Capa_1
 62
7
100
AcDbSpline
 70
8
 71
3
 72
8
 73
4
 74
0
 40
0
 40
0
 40
0
 40
0
 40
1
 40
1
 40
1
 40
1
 10
409.276830
 20
60.586385
 30
0.0
 10
411.276830
 20
60.586385
 30
0.0
 10
412.064010
 20
60.894893
 30
0.0
 10
414.277040
 20
60.894893
 30
0.0
  0
LWPOLYLINE
  5
122
100
AcDbEntity
  8
Capa_1
 62
7
100
AcDbPolyline
 90
1
 70
1
 10
398.276980
 20
60.894893
 30
0.0
  0
SPLINE
  5
123
100
AcDbEntity
  8
Capa_1
 62
7
100
AcDbSpline
 70
8
 71
3
 72
8
 73
4
 74
0
 40
0
 40
0
 40
0
 40
0
 40
1
 40
1
 40
1
 40
1
 10
430.277100
 20
60.894893
 30
0.0
 10
432.277100
 20
60.894893
 30
0.0
 10
433.276790
 20
60.586385
 30
0.0
 10
435.276790
 20
60.586385
 30
0.0
  0
SPLINE
  5
124
100
AcDbEntity
  8
Capa_1
 62
7
100
AcDbSpline
 70
8
 71
3
 72
8
 73
4
 74
0
 40
0
 40
0
 40
0
 40
0
 40
1
 40
1
 40
1
 40
1
 10
435.276790
 20
60.586385
 30
0.0
 10
433.276790
 20
60.586385
 30
0.0
 10
432.277100
 20
60.277360
 30
0.0
 10
430.277100
 20
60.277360
 30
0.0
  0
SPLINE
  5
125
100
AcDbEntity
  8
Capa_1
 62
7
100
AcDbSpline
 70
8
 71
3
 72
8
 73
4
 74
0
 40
0
 40
0
 40
0
 40
0
 40
1
 40
1
 40
1
 40
1
 10
430.277100
 20
60.277360
 30
0.0
 10
428.277100
 20
60.277360
 30
0.0
 10
427.276880
 20
60.586385
 30
0.0
 10
425.276880
 20
60.586385
 30
0.0
  0
SPLINE
  5
126
100
AcDbEntity
  8
Capa_1
 62
7
100
AcDbSpline
 70
8
 71
3
 72
8
 73
4
 74
0
 40
0
 40
0
 40
0
 40
0
 40
1
 40
1
 40
1
 40
1
 10
425.276880
 20
60.586385
 30
0.0
 10
427.276880
 20
60.586385
 30
0.0
 10
428.064080
 20
60.894893
 30
0.0
 10
430.277100
 20
60.894893
 30
0.0
  0
LWPOLYLINE
  5
127
100
AcDbEntity
  8
Capa_1
 62
7
100
AcDbPolyline
 90
1
 70
1
 10
414.277040
 20
60.894893
 30
0.0
  0
SPLINE
  5
128
100
AcDbEntity
  8
Capa_1
 62
7
100
AcDbSpline
 70
8
 71
3
 72
8
 73
4
 74
0
 40
0
 40
0
 40
0
 40
0
 40
1
 40
1
 40
1
 40
1
 10
390.276950
 20
58.895015
 30
0.0
 10
392.276950
 20
58.895015
 30
0.0
 10
393.277160
 20
58.586507
 30
0.0
 10
395.277160
 20
58.586507
 30
0.0
  0
SPLINE
  5
129
100
AcDbEntity
  8
Capa_1
 62
7
100
AcDbSpline
 70
8
 71
3
 72
8
 73
4
 74
0
 40
0
 40
0
 40
0
 40
0
 40
1
 40
1
 40
1
 40
1
 10
395.277160
 20
58.586507
 30
0.0
 10
393.277160
 20
58.586507
 30
0.0
 10
392.276950
 20
58.277482
 30
0.0
 10
390.276950
 20
58.277482
 30
0.0
  0
SPLINE
  5
12a
100
AcDbEntity
  8
Capa_1
 62
7
100
AcDbSpline
 70
8
 71
3
 72
8
 73
4
 74
0
 40
0
 40
0
 40
0
 40
0
 40
1
 40
1
 40
1
 40
1
 10
390.276950
 20
58.277482
 30
0.0
 10
388.063930
 20
58.277482
 30
0.0
 10
387.276740
 20
58.586507
 30
0.0
 10
385.276740
 20
58.586507
 30
0.0
  0
SPLINE
  5
12b
100
AcDbEntity
  8
Capa_1
 62
7
100
AcDbSpline
 70
8
 71
3
 72
8
 73
4
 74
0
 40
0
 40
0
 40
0
 40
0
 40
1
 40
1
 40
1
 40
1
 10
385.276740
 20
58.586507
 30
0.0
 10
387.276740
 20
58.586507
 30
0.0
 10
388.276950
 20
58.895015
 30
0.0
 10
390.276950
 20
58.895015
 30
0.0
  0
LWPOLYLINE
  5
12c
100
AcDbEntity
  8
Capa_1
 62
7
100
AcDbPolyline
 90
1
 70
1
 10
430.277100
 20
60.894893
 30
0.0
  0
SPLINE
  5
12d
100
AcDbEntity
  8
Capa_1
 62
7
100
AcDbSpline
 70
8
 71
3
 72
8
 73
4
 74
0
 40
0
 40
0
 40
0
 40
0
 40
1
 40
1
 40
1
 40
1
 10
406.277010
 20
58.895015
 30
0.0
 10
408.277010
 20
58.895015
 30
0.0
 10
409.277220
 20
58.586506
 30
0.0
 10
411.277220
 20
58.586507
 30
0.0
  0
SPLINE
  5
12e
100
AcDbEntity
  8
Capa_1
 62
7
100
AcDbSpline
 70
8
 71
3
 72
8
 73
4
 74
0
 40
0
 40
0
 40
0
 40
0
 40
1
 40
1
 40
1
 40
1
 10
411.277220
 20
58.586507
 30
0.0
 10
409.277220
 20
58.586506
 30
0.0
 10
408.277010
 20
58.277482
 30
0.0
 10
406.277010
 20
58.277482
 30
0.0
  0
SPLINE
  5
12f
100
AcDbEntity
  8
Capa_1
 62
7
100
AcDbSpline
 70
8
 71
3
 72
8
 73
4
 74
0
 40
0
 40
0
 40
0
 40
0
 40
1
 40
1
 40
1
 40
1
 10
406.277010
 20
58.277482
 30
0.0
 10
404.277010
 20
58.277482
 30
0.0
 10
403.276800
 20
58.586506
 30
0.0
 10
401.276800
 20
58.586507
 30
0.0
  0
SPLINE
  5
130
100
AcDbEntity
  8
Capa_1
 62
7
100
AcDbSpline
 70
8
 71
3
 72
8
 73
4
 74
0
 40
0
 40
0
 40
0
 40
0
 40
1
 40
1
 40
1
 40
1
 10
401.276800
 20
58.586507
 30
0.0
 10
403.276800
 20
58.586506
 30
0.0
 10
404.063980
 20
58.895015
 30
0.0
 10
406.277010
 20
58.895015
 30
0.0
  0
LWPOLYLINE
  5
131
100
AcDbEntity
  8
Capa_1
 62
7
100
AcDbPolyline
 90
1
 70
1
 10
390.276950
 20
58.895015
 30
0.0
  0
SPLINE
  5
132
100
AcDbEntity
  8
Capa_1
 62
7
100
AcDbSpline
 70
8
 71
3
 72
8
 73
4
 74
0
 40
0
 40
0
 40
0
 40
0
 40
1
 40
1
 40
1
 40
1
 10
422.277070
 20
58.895015
 30
0.0
 10
424.277070
 20
58.895015
 30
0.0
 10
425.276760
 20
58.586507
 30
0.0
 10
427.276760
 20
58.586507
 30
0.0
  0
SPLINE
  5
133
100
AcDbEntity
  8
Capa_1
 62
7
100
AcDbSpline
 70
8
 71
3
 72
8
 73
4
 74
0
 40
0
 40
0
 40
0
 40
0
 40
1
 40
1
 40
1
 40
1
 10
427.276760
 20
58.586507
 30
0.0
 10
425.276760
 20
58.586507
 30
0.0
 10
424.277070
 20
58.277482
 30
0.0
 10
422.277070
 20
58.277482
 30
0.0
  0
SPLINE
  5
134
100
AcDbEntity
  8
Capa_1
 62
7
100
AcDbSpline
 70
8
 71
3
 72
8
 73
4
 74
0
 40
0
 40
0
 40
0
 40
0
 40
1
 40
1
 40
1
 40
1
 10
422.277070
 20
58.277482
 30
0.0
 10
420.277070
 20
58.277482
 30
0.0
 10
419.276860
 20
58.586507
 30
0.0
 10
417.276860
 20
58.586507
 30
0.0
  0
SPLINE
  5
135
100
AcDbEntity
  8
Capa_1
 62
7
100
AcDbSpline
 70
8
 71
3
 72
8
 73
4
 74
0
 40
0
 40
0
 40
0
 40
0
 40
1
 40
1
 40
1
 40
1
 10
417.276860
 20
58.586507
 30
0.0
 10
419.276860
 20
58.586507
 30
0.0
 10
420.064040
 20
58.895015
 30
0.0
 10
422.277070
 20
58.895015
 30
0.0
  0
LWPOLYLINE
  5
136
100
AcDbEntity
  8
Capa_1
 62
7
100
AcDbPolyline
 90
1
 70
1
 10
406.277010
 20
58.895015
 30
0.0
  0
SPLINE
  5
137
100
AcDbEntity
  8
Capa_1
 62
7
100
AcDbSpline
 70
8
 71
3
 72
8
 73
4
 74
0
 40
0
 40
0
 40
0
 40
0
 40
1
 40
1
 40
1
 40
1
 10
438.277120
 20
58.895015
 30
0.0
 10
440.277120
 20
58.895015
 30
0.0
 10
441.276820
 20
58.586507
 30
0.0
 10
443.276820
 20
58.586507
 30
0.0
  0
SPLINE
  5
138
100
AcDbEntity
  8
Capa_1
 62
7
100
AcDbSpline
 70
8
 71
3
 72
8
 73
4
 74
0
 40
0
 40
0
 40
0
 40
0
 40
1
 40
1
 40
1
 40
1
 10
443.276820
 20
58.586507
 30
0.0
 10
441.276820
 20
58.586507
 30
0.0
 10
440.277120
 20
58.277482
 30
0.0
 10
438.277120
 20
58.277482
 30
0.0
  0
SPLINE
  5
139
100
AcDbEntity
  8
Capa_1
 62
7
100
AcDbSpline
 70
8
 71
3
 72
8
 73
4
 74
0
 40
0
 40
0
 40
0
 40
0
 40
1
 40
1
 40
1
 40
1
 10
438.277120
 20
58.277482
 30
0.0
 10
436.064100
 20
58.277482
 30
0.0
 10
435.276910
 20
58.586507
 30
0.0
 10
433.276910
 20
58.586507
 30
0.0
  0
SPLINE
  5
13a
100
AcDbEntity
  8
Capa_1
 62
7
100
AcDbSpline
 70
8
 71
3
 72
8
 73
4
 74
0
 40
0
 40
0
 40
0
 40
0
 40
1
 40
1
 40
1
 40
1
 10
433.276910
 20
58.586507
 30
0.0
 10
435.276910
 20
58.586507
 30
0.0
 10
436.277120
 20
58.895015
 30
0.0
 10
438.277120
 20
58.895015
 30
0.0
  0
LWPOLYLINE
  5
13b
100
AcDbEntity
  8
Capa_1
 62
7
100
AcDbPolyline
 90
1
 70
1
 10
422.277070
 20
58.895015
 30
0.0
  0
SPLINE
  5
13c
100
AcDbEntity
  8
Capa_1
 62
7
100
AcDbSpline
 70
8
 71
3
 72
8
 73
4
 74
0
 40
0
 40
0
 40
0
 40
0
 40
1
 40
1
 40
1
 40
1
 10
398.276980
 20
56.895138
 30
0.0
 10
400.276980
 20
56.895138
 30
0.0
 10
401.277190
 20
56.586628
 30
0.0
 10
403.277190
 20
56.586629
 30
0.0
  0
SPLINE
  5
13d
100
AcDbEntity
  8
Capa_1
 62
7
100
AcDbSpline
 70
8
 71
3
 72
8
 73
4
 74
0
 40
0
 40
0
 40
0
 40
0
 40
1
 40
1
 40
1
 40
1
 10
403.277190
 20
56.586629
 30
0.0
 10
401.277190
 20
56.586628
 30
0.0
 10
400.276980
 20
56.277604
 30
0.0
 10
398.276980
 20
56.277604
 30
0.0
  0
SPLINE
  5
13e
100
AcDbEntity
  8
Capa_1
 62
7
100
AcDbSpline
 70
8
 71
3
 72
8
 73
4
 74
0
 40
0
 40
0
 40
0
 40
0
 40
1
 40
1
 40
1
 40
1
 10
398.276980
 20
56.277604
 30
0.0
 10
396.276980
 20
56.277604
 30
0.0
 10
395.276770
 20
56.586628
 30
0.0
 10
393.276770
 20
56.586629
 30
0.0
  0
SPLINE
  5
13f
100
AcDbEntity
  8
Capa_1
 62
7
100
AcDbSpline
 70
8
 71
3
 72
8
 73
4
 74
0
 40
0
 40
0
 40
0
 40
0
 40
1
 40
1
 40
1
 40
1
 10
393.276770
 20
56.586629
 30
0.0
 10
395.276770
 20
56.586628
 30
0.0
 10
396.063950
 20
56.895138
 30
0.0
 10
398.276980
 20
56.895138
 30
0.0
  0
LWPOLYLINE
  5
140
100
AcDbEntity
  8
Capa_1
 62
7
100
AcDbPolyline
 90
1
 70
1
 10
438.277120
 20
58.895015
 30
0.0
  0
SPLINE
  5
141
100
AcDbEntity
  8
Capa_1
 62
7
100
AcDbSpline
 70
8
 71
3
 72
8
 73
4
 74
0
 40
0
 40
0
 40
0
 40
0
 40
1
 40
1
 40
1
 40
1
 10
414.277040
 20
56.895138
 30
0.0
 10
416.277040
 20
56.895138
 30
0.0
 10
417.276730
 20
56.586628
 30
0.0
 10
419.276730
 20
56.586629
 30
0.0
  0
SPLINE
  5
142
100
AcDbEntity
  8
Capa_1
 62
7
100
AcDbSpline
 70
8
 71
3
 72
8
 73
4
 74
0
 40
0
 40
0
 40
0
 40
0
 40
1
 40
1
 40
1
 40
1
 10
419.276730
 20
56.586629
 30
0.0
 10
417.276730
 20
56.586628
 30
0.0
 10
416.277040
 20
56.277604
 30
0.0
 10
414.277040
 20
56.277604
 30
0.0
  0
SPLINE
  5
143
100
AcDbEntity
  8
Capa_1
 62
7
100
AcDbSpline
 70
8
 71
3
 72
8
 73
4
 74
0
 40
0
 40
0
 40
0
 40
0
 40
1
 40
1
 40
1
 40
1
 10
414.277040
 20
56.277604
 30
0.0
 10
412.277040
 20
56.277604
 30
0.0
 10
411.276830
 20
56.586628
 30
0.0
 10
409.276830
 20
56.586629
 30
0.0
  0
SPLINE
  5
144
100
AcDbEntity
  8
Capa_1
 62
7
100
AcDbSpline
 70
8
 71
3
 72
8
 73
4
 74
0
 40
0
 40
0
 40
0
 40
0
 40
1
 40
1
 40
1
 40
1
 10
409.276830
 20
56.586629
 30
0.0
 10
411.276830
 20
56.586628
 30
0.0
 10
412.064010
 20
56.895138
 30
0.0
 10
414.277040
 20
56.895138
 30
0.0
  0
LWPOLYLINE
  5
145
100
AcDbEntity
  8
Capa_1
 62
7
100
AcDbPolyline
 90
1
 70
1
 10
398.276980
 20
56.895138
 30
0.0
  0
SPLINE
  5
146
100
AcDbEntity
  8
Capa_1
 62
7
100
AcDbSpline
 70
8
 71
3
 72
8
 73
4
 74
0
 40
0
 40
0
 40
0
 40
0
 40
1
 40
1
 40
1
 40
1
 10
430.277100
 20
56.895138
 30
0.0
 10
432.277100
 20
56.895138
 30
0.0
 10
433.276790
 20
56.586628
 30
0.0
 10
435.276790
 20
56.586629
 30
0.0
  0
SPLINE
  5
147
100
AcDbEntity
  8
Capa_1
 62
7
100
AcDbSpline
 70
8
 71
3
 72
8
 73
4
 74
0
 40
0
 40
0
 40
0
 40
0
 40
1
 40
1
 40
1
 40
1
 10
435.276790
 20
56.586629
 30
0.0
 10
433.276790
 20
56.586628
 30
0.0
 10
432.277100
 20
56.277604
 30
0.0
 10
430.277100
 20
56.277604
 30
0.0
  0
SPLINE
  5
148
100
AcDbEntity
  8
Capa_1
 62
7
100
AcDbSpline
 70
8
 71
3
 72
8
 73
4
 74
0
 40
0
 40
0
 40
0
 40
0
 40
1
 40
1
 40
1
 40
1
 10
430.277100
 20
56.277604
 30
0.0
 10
428.277100
 20
56.277604
 30
0.0
 10
427.276880
 20
56.586628
 30
0.0
 10
425.276880
 20
56.586629
 30
0.0
  0
SPLINE
  5
149
100
AcDbEntity
  8
Capa_1
 62
7
100
AcDbSpline
 70
8
 71
3
 72
8
 73
4
 74
0
 40
0
 40
0
 40
0
 40
0
 40
1
 40
1
 40
1
 40
1
 10
425.276880
 20
56.586629
 30
0.0
 10
427.276880
 20
56.586628
 30
0.0
 10
428.064080
 20
56.895138
 30
0.0
 10
430.277100
 20
56.895138
 30
0.0
  0
LWPOLYLINE
  5
14a
100
AcDbEntity
  8
Capa_1
 62
7
100
AcDbPolyline
 90
1
 70
1
 10
414.277040
 20
56.895138
 30
0.0
  0
SPLINE
  5
14b
100
AcDbEntity
  8
Capa_1
 62
7
100
AcDbSpline
 70
8
 71
3
 72
8
 73
4
 74
0
 40
0
 40
0
 40
0
 40
0
 40
1
 40
1
 40
1
 40
1
 10
390.276950
 20
54.895260
 30
0.0
 10
392.276950
 20
54.895260
 30
0.0
 10
393.277160
 20
54.586235
 30
0.0
 10
395.277160
 20
54.586235
 30
0.0
  0
SPLINE
  5
14c
100
AcDbEntity
  8
Capa_1
 62
7
100
AcDbSpline
 70
8
 71
3
 72
8
 73
4
 74
0
 40
0
 40
0
 40
0
 40
0
 40
1
 40
1
 40
1
 40
1
 10
395.277160
 20
54.586235
 30
0.0
 10
393.277160
 20
54.586235
 30
0.0
 10
392.276950
 20
54.277726
 30
0.0
 10
390.276950
 20
54.277726
 30
0.0
  0
SPLINE
  5
14d
100
AcDbEntity
  8
Capa_1
 62
7
100
AcDbSpline
 70
8
 71
3
 72
8
 73
4
 74
0
 40
0
 40
0
 40
0
 40
0
 40
1
 40
1
 40
1
 40
1
 10
390.276950
 20
54.277726
 30
0.0
 10
388.063930
 20
54.277726
 30
0.0
 10
387.276740
 20
54.586235
 30
0.0
 10
385.276740
 20
54.586235
 30
0.0
  0
SPLINE
  5
14e
100
AcDbEntity
  8
Capa_1
 62
7
100
AcDbSpline
 70
8
 71
3
 72
8
 73
4
 74
0
 40
0
 40
0
 40
0
 40
0
 40
1
 40
1
 40
1
 40
1
 10
385.276740
 20
54.586235
 30
0.0
 10
387.276740
 20
54.586235
 30
0.0
 10
388.276950
 20
54.895260
 30
0.0
 10
390.276950
 20
54.895260
 30
0.0
  0
LWPOLYLINE
  5
14f
100
AcDbEntity
  8
Capa_1
 62
7
100
AcDbPolyline
 90
1
 70
1
 10
430.277100
 20
56.895138
 30
0.0
  0
SPLINE
  5
150
100
AcDbEntity
  8
Capa_1
 62
7
100
AcDbSpline
 70
8
 71
3
 72
8
 73
4
 74
0
 40
0
 40
0
 40
0
 40
0
 40
1
 40
1
 40
1
 40
1
 10
406.277010
 20
54.895260
 30
0.0
 10
408.277010
 20
54.895260
 30
0.0
 10
409.277220
 20
54.586235
 30
0.0
 10
411.277220
 20
54.586235
 30
0.0
  0
SPLINE
  5
151
100
AcDbEntity
  8
Capa_1
 62
7
100
AcDbSpline
 70
8
 71
3
 72
8
 73
4
 74
0
 40
0
 40
0
 40
0
 40
0
 40
1
 40
1
 40
1
 40
1
 10
411.277220
 20
54.586235
 30
0.0
 10
409.277220
 20
54.586235
 30
0.0
 10
408.277010
 20
54.277726
 30
0.0
 10
406.277010
 20
54.277726
 30
0.0
  0
SPLINE
  5
152
100
AcDbEntity
  8
Capa_1
 62
7
100
AcDbSpline
 70
8
 71
3
 72
8
 73
4
 74
0
 40
0
 40
0
 40
0
 40
0
 40
1
 40
1
 40
1
 40
1
 10
406.277010
 20
54.277726
 30
0.0
 10
404.277010
 20
54.277726
 30
0.0
 10
403.276800
 20
54.586235
 30
0.0
 10
401.276800
 20
54.586235
 30
0.0
  0
SPLINE
  5
153
100
AcDbEntity
  8
Capa_1
 62
7
100
AcDbSpline
 70
8
 71
3
 72
8
 73
4
 74
0
 40
0
 40
0
 40
0
 40
0
 40
1
 40
1
 40
1
 40
1
 10
401.276800
 20
54.586235
 30
0.0
 10
403.276800
 20
54.586235
 30
0.0
 10
404.063980
 20
54.895260
 30
0.0
 10
406.277010
 20
54.895260
 30
0.0
  0
LWPOLYLINE
  5
154
100
AcDbEntity
  8
Capa_1
 62
7
100
AcDbPolyline
 90
1
 70
1
 10
390.276950
 20
54.895260
 30
0.0
  0
SPLINE
  5
155
100
AcDbEntity
  8
Capa_1
 62
7
100
AcDbSpline
 70
8
 71
3
 72
8
 73
4
 74
0
 40
0
 40
0
 40
0
 40
0
 40
1
 40
1
 40
1
 40
1
 10
422.277070
 20
54.895260
 30
0.0
 10
424.277070
 20
54.895260
 30
0.0
 10
425.276760
 20
54.586235
 30
0.0
 10
427.276760
 20
54.586235
 30
0.0
  0
SPLINE
  5
156
100
AcDbEntity
  8
Capa_1
 62
7
100
AcDbSpline
 70
8
 71
3
 72
8
 73
4
 74
0
 40
0
 40
0
 40
0
 40
0
 40
1
 40
1
 40
1
 40
1
 10
427.276760
 20
54.586235
 30
0.0
 10
425.276760
 20
54.586235
 30
0.0
 10
424.277070
 20
54.277726
 30
0.0
 10
422.277070
 20
54.277726
 30
0.0
  0
SPLINE
  5
157
100
AcDbEntity
  8
Capa_1
 62
7
100
AcDbSpline
 70
8
 71
3
 72
8
 73
4
 74
0
 40
0
 40
0
 40
0
 40
0
 40
1
 40
1
 40
1
 40
1
 10
422.277070
 20
54.277726
 30
0.0
 10
420.277070
 20
54.277726
 30
0.0
 10
419.276860
 20
54.586235
 30
0.0
 10
417.276860
 20
54.586235
 30
0.0
  0
SPLINE
  5
158
100
AcDbEntity
  8
Capa_1
 62
7
100
AcDbSpline
 70
8
 71
3
 72
8
 73
4
 74
0
 40
0
 40
0
 40
0
 40
0
 40
1
 40
1
 40
1
 40
1
 10
417.276860
 20
54.586235
 30
0.0
 10
419.276860
 20
54.586235
 30
0.0
 10
420.064040
 20
54.895260
 30
0.0
 10
422.277070
 20
54.895260
 30
0.0
  0
LWPOLYLINE
  5
159
100
AcDbEntity
  8
Capa_1
 62
7
100
AcDbPolyline
 90
1
 70
1
 10
406.277010
 20
54.895260
 30
0.0
  0
SPLINE
  5
15a
100
AcDbEntity
  8
Capa_1
 62
7
100
AcDbSpline
 70
8
 71
3
 72
8
 73
4
 74
0
 40
0
 40
0
 40
0
 40
0
 40
1
 40
1
 40
1
 40
1
 10
438.277120
 20
54.895260
 30
0.0
 10
440.277120
 20
54.895260
 30
0.0
 10
441.276820
 20
54.586235
 30
0.0
 10
443.276820
 20
54.586235
 30
0.0
  0
SPLINE
  5
15b
100
AcDbEntity
  8
Capa_1
 62
7
100
AcDbSpline
 70
8
 71
3
 72
8
 73
4
 74
0
 40
0
 40
0
 40
0
 40
0
 40
1
 40
1
 40
1
 40
1
 10
443.276820
 20
54.586235
 30
0.0
 10
441.276820
 20
54.586235
 30
0.0
 10
440.277120
 20
54.277726
 30
0.0
 10
438.277120
 20
54.277726
 30
0.0
  0
SPLINE
  5
15c
100
AcDbEntity
  8
Capa_1
 62
7
100
AcDbSpline
 70
8
 71
3
 72
8
 73
4
 74
0
 40
0
 40
0
 40
0
 40
0
 40
1
 40
1
 40
1
 40
1
 10
438.277120
 20
54.277726
 30
0.0
 10
436.064100
 20
54.277726
 30
0.0
 10
435.276910
 20
54.586235
 30
0.0
 10
433.276910
 20
54.586235
 30
0.0
  0
SPLINE
  5
15d
100
AcDbEntity
  8
Capa_1
 62
7
100
AcDbSpline
 70
8
 71
3
 72
8
 73
4
 74
0
 40
0
 40
0
 40
0
 40
0
 40
1
 40
1
 40
1
 40
1
 10
433.276910
 20
54.586235
 30
0.0
 10
435.276910
 20
54.586235
 30
0.0
 10
436.277120
 20
54.895260
 30
0.0
 10
438.277120
 20
54.895260
 30
0.0
  0
LWPOLYLINE
  5
15e
100
AcDbEntity
  8
Capa_1
 62
7
100
AcDbPolyline
 90
1
 70
1
 10
422.277070
 20
54.895260
 30
0.0
  0
SPLINE
  5
15f
100
AcDbEntity
  8
Capa_1
 62
7
100
AcDbSpline
 70
8
 71
3
 72
8
 73
4
 74
0
 40
0
 40
0
 40
0
 40
0
 40
1
 40
1
 40
1
 40
1
 10
828.855350
 20
53.714453
 30
0.0
 10
831.036600
 20
53.714418
 30
0.0
 10
832.804860
 20
52.034070
 30
0.0
 10
832.804980
 20
49.961194
 30
0.0
  0
SPLINE
  5
160
100
AcDbEntity
  8
Capa_1
 62
7
100
AcDbSpline
 70
8
 71
3
 72
8
 73
4
 74
0
 40
0
 40
0
 40
0
 40
0
 40
1
 40
1
 40
1
 40
1
 10
832.804980
 20
49.961194
 30
0.0
 10
832.805460
 20
47.887915
 30
0.0
 10
831.037020
 20
46.206936
 30
0.0
 10
828.855350
 20
46.206901
 30
0.0
  0
SPLINE
  5
161
100
AcDbEntity
  8
Capa_1
 62
7
100
AcDbSpline
 70
8
 71
3
 72
8
 73
4
 74
0
 40
0
 40
0
 40
0
 40
0
 40
1
 40
1
 40
1
 40
1
 10
828.855350
 20
46.206901
 30
0.0
 10
826.673680
 20
46.206936
 30
0.0
 10
824.905240
 20
47.887915
 30
0.0
 10
824.905720
 20
49.961194
 30
0.0
  0
SPLINE
  5
162
100
AcDbEntity
  8
Capa_1
 62
7
100
AcDbSpline
 70
8
 71
3
 72
8
 73
4
 74
0
 40
0
 40
0
 40
0
 40
0
 40
1
 40
1
 40
1
 40
1
 10
824.905720
 20
49.961194
 30
0.0
 10
824.905840
 20
52.034070
 30
0.0
 10
826.674100
 20
53.714418
 30
0.0
 10
828.855350
 20
53.714453
 30
0.0
  0
LWPOLYLINE
  5
163
100
AcDbEntity
  8
Capa_1
 62
7
100
AcDbPolyline
 90
1
 70
1
 10
438.277120
 20
54.895260
 30
0.0
  0
SPLINE
  5
164
100
AcDbEntity
  8
Capa_1
 62
7
100
AcDbSpline
 70
8
 71
3
 72
8
 73
4
 74
0
 40
0
 40
0
 40
0
 40
0
 40
1
 40
1
 40
1
 40
1
 10
390.276950
 20
44.895353
 30
0.0
 10
392.276950
 20
44.895353
 30
0.0
 10
393.277160
 20
44.586328
 30
0.0
 10
395.277160
 20
44.586328
 30
0.0
  0
SPLINE
  5
165
100
AcDbEntity
  8
Capa_1
 62
7
100
AcDbSpline
 70
8
 71
3
 72
8
 73
4
 74
0
 40
0
 40
0
 40
0
 40
0
 40
1
 40
1
 40
1
 40
1
 10
395.277160
 20
44.586328
 30
0.0
 10
393.277160
 20
44.586328
 30
0.0
 10
392.276950
 20
44.277820
 30
0.0
 10
390.276950
 20
44.277820
 30
0.0
  0
SPLINE
  5
166
100
AcDbEntity
  8
Capa_1
 62
7
100
AcDbSpline
 70
8
 71
3
 72
8
 73
4
 74
0
 40
0
 40
0
 40
0
 40
0
 40
1
 40
1
 40
1
 40
1
 10
390.276950
 20
44.277820
 30
0.0
 10
388.063930
 20
44.277820
 30
0.0
 10
387.276740
 20
44.586328
 30
0.0
 10
385.276740
 20
44.586328
 30
0.0
  0
SPLINE
  5
167
100
AcDbEntity
  8
Capa_1
 62
7
100
AcDbSpline
 70
8
 71
3
 72
8
 73
4
 74
0
 40
0
 40
0
 40
0
 40
0
 40
1
 40
1
 40
1
 40
1
 10
385.276740
 20
44.586328
 30
0.0
 10
387.276740
 20
44.586328
 30
0.0
 10
388.276950
 20
44.895353
 30
0.0
 10
390.276950
 20
44.895353
 30
0.0
  0
LWPOLYLINE
  5
168
100
AcDbEntity
  8
Capa_1
 62
7
100
AcDbPolyline
 90
1
 70
1
 10
828.855350
 20
53.714453
 30
0.0
  0
SPLINE
  5
169
100
AcDbEntity
  8
Capa_1
 62
7
100
AcDbSpline
 70
8
 71
3
 72
8
 73
4
 74
0
 40
0
 40
0
 40
0
 40
0
 40
1
 40
1
 40
1
 40
1
 10
406.277010
 20
44.895353
 30
0.0
 10
408.277010
 20
44.895353
 30
0.0
 10
409.277220
 20
44.586328
 30
0.0
 10
411.277220
 20
44.586328
 30
0.0
  0
SPLINE
  5
16a
100
AcDbEntity
  8
Capa_1
 62
7
100
AcDbSpline
 70
8
 71
3
 72
8
 73
4
 74
0
 40
0
 40
0
 40
0
 40
0
 40
1
 40
1
 40
1
 40
1
 10
411.277220
 20
44.586328
 30
0.0
 10
409.277220
 20
44.586328
 30
0.0
 10
408.277010
 20
44.277820
 30
0.0
 10
406.277010
 20
44.277820
 30
0.0
  0
SPLINE
  5
16b
100
AcDbEntity
  8
Capa_1
 62
7
100
AcDbSpline
 70
8
 71
3
 72
8
 73
4
 74
0
 40
0
 40
0
 40
0
 40
0
 40
1
 40
1
 40
1
 40
1
 10
406.277010
 20
44.277820
 30
0.0
 10
404.063980
 20
44.277820
 30
0.0
 10
403.276800
 20
44.586328
 30
0.0
 10
401.276800
 20
44.586328
 30
0.0
  0
SPLINE
  5
16c
100
AcDbEntity
  8
Capa_1
 62
7
100
AcDbSpline
 70
8
 71
3
 72
8
 73
4
 74
0
 40
0
 40
0
 40
0
 40
0
 40
1
 40
1
 40
1
 40
1
 10
401.276800
 20
44.586328
 30
0.0
 10
403.276800
 20
44.586328
 30
0.0
 10
404.277010
 20
44.895353
 30
0.0
 10
406.277010
 20
44.895353
 30
0.0
  0
LWPOLYLINE
  5
16d
100
AcDbEntity
  8
Capa_1
 62
7
100
AcDbPolyline
 90
1
 70
1
 10
390.276950
 20
44.895353
 30
0.0
  0
SPLINE
  5
16e
100
AcDbEntity
  8
Capa_1
 62
7
100
AcDbSpline
 70
8
 71
3
 72
8
 73
4
 74
0
 40
0
 40
0
 40
0
 40
0
 40
1
 40
1
 40
1
 40
1
 10
422.277070
 20
44.895353
 30
0.0
 10
424.277060
 20
44.895353
 30
0.0
 10
425.276760
 20
44.586328
 30
0.0
 10
427.276760
 20
44.586328
 30
0.0
  0
SPLINE
  5
16f
100
AcDbEntity
  8
Capa_1
 62
7
100
AcDbSpline
 70
8
 71
3
 72
8
 73
4
 74
0
 40
0
 40
0
 40
0
 40
0
 40
1
 40
1
 40
1
 40
1
 10
427.276760
 20
44.586328
 30
0.0
 10
425.276760
 20
44.586328
 30
0.0
 10
424.277060
 20
44.277820
 30
0.0
 10
422.277070
 20
44.277820
 30
0.0
  0
SPLINE
  5
170
100
AcDbEntity
  8
Capa_1
 62
7
100
AcDbSpline
 70
8
 71
3
 72
8
 73
4
 74
0
 40
0
 40
0
 40
0
 40
0
 40
1
 40
1
 40
1
 40
1
 10
422.277070
 20
44.277820
 30
0.0
 10
420.064040
 20
44.277820
 30
0.0
 10
419.276860
 20
44.586328
 30
0.0
 10
417.276860
 20
44.586328
 30
0.0
  0
SPLINE
  5
171
100
AcDbEntity
  8
Capa_1
 62
7
100
AcDbSpline
 70
8
 71
3
 72
8
 73
4
 74
0
 40
0
 40
0
 40
0
 40
0
 40
1
 40
1
 40
1
 40
1
 10
417.276860
 20
44.586328
 30
0.0
 10
419.276860
 20
44.586328
 30
0.0
 10
420.277070
 20
44.895353
 30
0.0
 10
422.277070
 20
44.895353
 30
0.0
  0
LWPOLYLINE
  5
172
100
AcDbEntity
  8
Capa_1
 62
7
100
AcDbPolyline
 90
1
 70
1
 10
406.277010
 20
44.895353
 30
0.0
  0
SPLINE
  5
173
100
AcDbEntity
  8
Capa_1
 62
7
100
AcDbSpline
 70
8
 71
3
 72
8
 73
4
 74
0
 40
0
 40
0
 40
0
 40
0
 40
1
 40
1
 40
1
 40
1
 10
438.277120
 20
44.895353
 30
0.0
 10
440.277120
 20
44.895353
 30
0.0
 10
441.276820
 20
44.586328
 30
0.0
 10
443.276820
 20
44.586328
 30
0.0
  0
SPLINE
  5
174
100
AcDbEntity
  8
Capa_1
 62
7
100
AcDbSpline
 70
8
 71
3
 72
8
 73
4
 74
0
 40
0
 40
0
 40
0
 40
0
 40
1
 40
1
 40
1
 40
1
 10
443.276820
 20
44.586328
 30
0.0
 10
441.276820
 20
44.586328
 30
0.0
 10
440.277120
 20
44.277820
 30
0.0
 10
438.277120
 20
44.277820
 30
0.0
  0
SPLINE
  5
175
100
AcDbEntity
  8
Capa_1
 62
7
100
AcDbSpline
 70
8
 71
3
 72
8
 73
4
 74
0
 40
0
 40
0
 40
0
 40
0
 40
1
 40
1
 40
1
 40
1
 10
438.277120
 20
44.277820
 30
0.0
 10
436.064100
 20
44.277820
 30
0.0
 10
435.276910
 20
44.586328
 30
0.0
 10
433.276910
 20
44.586328
 30
0.0
  0
SPLINE
  5
176
100
AcDbEntity
  8
Capa_1
 62
7
100
AcDbSpline
 70
8
 71
3
 72
8
 73
4
 74
0
 40
0
 40
0
 40
0
 40
0
 40
1
 40
1
 40
1
 40
1
 10
433.276910
 20
44.586328
 30
0.0
 10
435.276910
 20
44.586328
 30
0.0
 10
436.277120
 20
44.895353
 30
0.0
 10
438.277120
 20
44.895353
 30
0.0
  0
LWPOLYLINE
  5
177
100
AcDbEntity
  8
Capa_1
 62
7
100
AcDbPolyline
 90
1
 70
1
 10
422.277070
 20
44.895353
 30
0.0
  0
SPLINE
  5
178
100
AcDbEntity
  8
Capa_1
 62
7
100
AcDbSpline
 70
8
 71
3
 72
8
 73
4
 74
0
 40
0
 40
0
 40
0
 40
0
 40
1
 40
1
 40
1
 40
1
 10
398.276980
 20
42.894958
 30
0.0
 10
400.276980
 20
42.894958
 30
0.0
 10
401.277190
 20
42.586451
 30
0.0
 10
403.277190
 20
42.586450
 30
0.0
  0
SPLINE
  5
179
100
AcDbEntity
  8
Capa_1
 62
7
100
AcDbSpline
 70
8
 71
3
 72
8
 73
4
 74
0
 40
0
 40
0
 40
0
 40
0
 40
1
 40
1
 40
1
 40
1
 10
403.277190
 20
42.586450
 30
0.0
 10
401.277190
 20
42.586451
 30
0.0
 10
400.276980
 20
42.277425
 30
0.0
 10
398.276980
 20
42.277425
 30
0.0
  0
SPLINE
  5
17a
100
AcDbEntity
  8
Capa_1
 62
7
100
AcDbSpline
 70
8
 71
3
 72
8
 73
4
 74
0
 40
0
 40
0
 40
0
 40
0
 40
1
 40
1
 40
1
 40
1
 10
398.276980
 20
42.277425
 30
0.0
 10
396.063950
 20
42.277425
 30
0.0
 10
395.276770
 20
42.586451
 30
0.0
 10
393.276770
 20
42.586450
 30
0.0
  0
SPLINE
  5
17b
100
AcDbEntity
  8
Capa_1
 62
7
100
AcDbSpline
 70
8
 71
3
 72
8
 73
4
 74
0
 40
0
 40
0
 40
0
 40
0
 40
1
 40
1
 40
1
 40
1
 10
393.276770
 20
42.586450
 30
0.0
 10
395.276770
 20
42.586451
 30
0.0
 10
396.276980
 20
42.894958
 30
0.0
 10
398.276980
 20
42.894958
 30
0.0
  0
LWPOLYLINE
  5
17c
100
AcDbEntity
  8
Capa_1
 62
7
100
AcDbPolyline
 90
1
 70
1
 10
438.277120
 20
44.895353
 30
0.0
  0
SPLINE
  5
17d
100
AcDbEntity
  8
Capa_1
 62
7
100
AcDbSpline
 70
8
 71
3
 72
8
 73
4
 74
0
 40
0
 40
0
 40
0
 40
0
 40
1
 40
1
 40
1
 40
1
 10
414.277040
 20
42.894958
 30
0.0
 10
416.277040
 20
42.894958
 30
0.0
 10
417.276730
 20
42.586451
 30
0.0
 10
419.276730
 20
42.586450
 30
0.0
  0
SPLINE
  5
17e
100
AcDbEntity
  8
Capa_1
 62
7
100
AcDbSpline
 70
8
 71
3
 72
8
 73
4
 74
0
 40
0
 40
0
 40
0
 40
0
 40
1
 40
1
 40
1
 40
1
 10
419.276730
 20
42.586450
 30
0.0
 10
417.276730
 20
42.586451
 30
0.0
 10
416.277040
 20
42.277425
 30
0.0
 10
414.277040
 20
42.277425
 30
0.0
  0
SPLINE
  5
17f
100
AcDbEntity
  8
Capa_1
 62
7
100
AcDbSpline
 70
8
 71
3
 72
8
 73
4
 74
0
 40
0
 40
0
 40
0
 40
0
 40
1
 40
1
 40
1
 40
1
 10
414.277040
 20
42.277425
 30
0.0
 10
412.064010
 20
42.277425
 30
0.0
 10
411.276830
 20
42.586451
 30
0.0
 10
409.276830
 20
42.586450
 30
0.0
  0
SPLINE
  5
180
100
AcDbEntity
  8
Capa_1
 62
7
100
AcDbSpline
 70
8
 71
3
 72
8
 73
4
 74
0
 40
0
 40
0
 40
0
 40
0
 40
1
 40
1
 40
1
 40
1
 10
409.276830
 20
42.586450
 30
0.0
 10
411.276830
 20
42.586451
 30
0.0
 10
412.277040
 20
42.894958
 30
0.0
 10
414.277040
 20
42.894958
 30
0.0
  0
LWPOLYLINE
  5
181
100
AcDbEntity
  8
Capa_1
 62
7
100
AcDbPolyline
 90
1
 70
1
 10
398.276980
 20
42.894958
 30
0.0
  0
SPLINE
  5
182
100
AcDbEntity
  8
Capa_1
 62
7
100
AcDbSpline
 70
8
 71
3
 72
8
 73
4
 74
0
 40
0
 40
0
 40
0
 40
0
 40
1
 40
1
 40
1
 40
1
 10
430.277100
 20
42.894958
 30
0.0
 10
432.277100
 20
42.894958
 30
0.0
 10
433.276790
 20
42.586451
 30
0.0
 10
435.276790
 20
42.586450
 30
0.0
  0
SPLINE
  5
183
100
AcDbEntity
  8
Capa_1
 62
7
100
AcDbSpline
 70
8
 71
3
 72
8
 73
4
 74
0
 40
0
 40
0
 40
0
 40
0
 40
1
 40
1
 40
1
 40
1
 10
435.276790
 20
42.586450
 30
0.0
 10
433.276790
 20
42.586451
 30
0.0
 10
432.277100
 20
42.277425
 30
0.0
 10
430.277100
 20
42.277425
 30
0.0
  0
SPLINE
  5
184
100
AcDbEntity
  8
Capa_1
 62
7
100
AcDbSpline
 70
8
 71
3
 72
8
 73
4
 74
0
 40
0
 40
0
 40
0
 40
0
 40
1
 40
1
 40
1
 40
1
 10
430.277100
 20
42.277425
 30
0.0
 10
428.064080
 20
42.277425
 30
0.0
 10
427.276880
 20
42.586451
 30
0.0
 10
425.276880
 20
42.586450
 30
0.0
  0
SPLINE
  5
185
100
AcDbEntity
  8
Capa_1
 62
7
100
AcDbSpline
 70
8
 71
3
 72
8
 73
4
 74
0
 40
0
 40
0
 40
0
 40
0
 40
1
 40
1
 40
1
 40
1
 10
425.276880
 20
42.586450
 30
0.0
 10
427.276880
 20
42.586451
 30
0.0
 10
428.277100
 20
42.894958
 30
0.0
 10
430.277100
 20
42.894958
 30
0.0
  0
LWPOLYLINE
  5
186
100
AcDbEntity
  8
Capa_1
 62
7
100
AcDbPolyline
 90
1
 70
1
 10
414.277040
 20
42.894958
 30
0.0
  0
SPLINE
  5
187
100
AcDbEntity
  8
Capa_1
 62
7
100
AcDbSpline
 70
8
 71
3
 72
8
 73
4
 74
0
 40
0
 40
0
 40
0
 40
0
 40
1
 40
1
 40
1
 40
1
 10
390.276950
 20
40.895081
 30
0.0
 10
392.276950
 20
40.895081
 30
0.0
 10
393.277160
 20
40.586572
 30
0.0
 10
395.277160
 20
40.586572
 30
0.0
  0
SPLINE
  5
188
100
AcDbEntity
  8
Capa_1
 62
7
100
AcDbSpline
 70
8
 71
3
 72
8
 73
4
 74
0
 40
0
 40
0
 40
0
 40
0
 40
1
 40
1
 40
1
 40
1
 10
395.277160
 20
40.586572
 30
0.0
 10
393.277160
 20
40.586572
 30
0.0
 10
392.276950
 20
40.277547
 30
0.0
 10
390.276950
 20
40.277547
 30
0.0
  0
SPLINE
  5
189
100
AcDbEntity
  8
Capa_1
 62
7
100
AcDbSpline
 70
8
 71
3
 72
8
 73
4
 74
0
 40
0
 40
0
 40
0
 40
0
 40
1
 40
1
 40
1
 40
1
 10
390.276950
 20
40.277547
 30
0.0
 10
388.063930
 20
40.277547
 30
0.0
 10
387.276740
 20
40.586572
 30
0.0
 10
385.276740
 20
40.586572
 30
0.0
  0
SPLINE
  5
18a
100
AcDbEntity
  8
Capa_1
 62
7
100
AcDbSpline
 70
8
 71
3
 72
8
 73
4
 74
0
 40
0
 40
0
 40
0
 40
0
 40
1
 40
1
 40
1
 40
1
 10
385.276740
 20
40.586572
 30
0.0
 10
387.276740
 20
40.586572
 30
0.0
 10
388.276950
 20
40.895081
 30
0.0
 10
390.276950
 20
40.895081
 30
0.0
  0
LWPOLYLINE
  5
18b
100
AcDbEntity
  8
Capa_1
 62
7
100
AcDbPolyline
 90
1
 70
1
 10
430.277100
 20
42.894958
 30
0.0
  0
SPLINE
  5
18c
100
AcDbEntity
  8
Capa_1
 62
7
100
AcDbSpline
 70
8
 71
3
 72
8
 73
4
 74
0
 40
0
 40
0
 40
0
 40
0
 40
1
 40
1
 40
1
 40
1
 10
406.277010
 20
40.895081
 30
0.0
 10
408.277010
 20
40.895081
 30
0.0
 10
409.277220
 20
40.586573
 30
0.0
 10
411.277220
 20
40.586572
 30
0.0
  0
SPLINE
  5
18d
100
AcDbEntity
  8
Capa_1
 62
7
100
AcDbSpline
 70
8
 71
3
 72
8
 73
4
 74
0
 40
0
 40
0
 40
0
 40
0
 40
1
 40
1
 40
1
 40
1
 10
411.277220
 20
40.586572
 30
0.0
 10
409.277220
 20
40.586573
 30
0.0
 10
408.277010
 20
40.277547
 30
0.0
 10
406.277010
 20
40.277547
 30
0.0
  0
SPLINE
  5
18e
100
AcDbEntity
  8
Capa_1
 62
7
100
AcDbSpline
 70
8
 71
3
 72
8
 73
4
 74
0
 40
0
 40
0
 40
0
 40
0
 40
1
 40
1
 40
1
 40
1
 10
406.277010
 20
40.277547
 30
0.0
 10
404.063980
 20
40.277547
 30
0.0
 10
403.276800
 20
40.586573
 30
0.0
 10
401.276800
 20
40.586572
 30
0.0
  0
SPLINE
  5
18f
100
AcDbEntity
  8
Capa_1
 62
7
100
AcDbSpline
 70
8
 71
3
 72
8
 73
4
 74
0
 40
0
 40
0
 40
0
 40
0
 40
1
 40
1
 40
1
 40
1
 10
401.276800
 20
40.586572
 30
0.0
 10
403.276800
 20
40.586573
 30
0.0
 10
404.277010
 20
40.895081
 30
0.0
 10
406.277010
 20
40.895081
 30
0.0
  0
LWPOLYLINE
  5
190
100
AcDbEntity
  8
Capa_1
 62
7
100
AcDbPolyline
 90
1
 70
1
 10
390.276950
 20
40.895081
 30
0.0
  0
SPLINE
  5
191
100
AcDbEntity
  8
Capa_1
 62
7
100
AcDbSpline
 70
8
 71
3
 72
8
 73
4
 74
0
 40
0
 40
0
 40
0
 40
0
 40
1
 40
1
 40
1
 40
1
 10
422.277070
 20
40.895081
 30
0.0
 10
424.277060
 20
40.895081
 30
0.0
 10
425.276760
 20
40.586572
 30
0.0
 10
427.276760
 20
40.586572
 30
0.0
  0
SPLINE
  5
192
100
AcDbEntity
  8
Capa_1
 62
7
100
AcDbSpline
 70
8
 71
3
 72
8
 73
4
 74
0
 40
0
 40
0
 40
0
 40
0
 40
1
 40
1
 40
1
 40
1
 10
427.276760
 20
40.586572
 30
0.0
 10
425.276760
 20
40.586572
 30
0.0
 10
424.277060
 20
40.277547
 30
0.0
 10
422.277070
 20
40.277547
 30
0.0
  0
SPLINE
  5
193
100
AcDbEntity
  8
Capa_1
 62
7
100
AcDbSpline
 70
8
 71
3
 72
8
 73
4
 74
0
 40
0
 40
0
 40
0
 40
0
 40
1
 40
1
 40
1
 40
1
 10
422.277070
 20
40.277547
 30
0.0
 10
420.064040
 20
40.277547
 30
0.0
 10
419.276860
 20
40.586572
 30
0.0
 10
417.276860
 20
40.586572
 30
0.0
  0
SPLINE
  5
194
100
AcDbEntity
  8
Capa_1
 62
7
100
AcDbSpline
 70
8
 71
3
 72
8
 73
4
 74
0
 40
0
 40
0
 40
0
 40
0
 40
1
 40
1
 40
1
 40
1
 10
417.276860
 20
40.586572
 30
0.0
 10
419.276860
 20
40.586572
 30
0.0
 10
420.277070
 20
40.895081
 30
0.0
 10
422.277070
 20
40.895081
 30
0.0
  0
LWPOLYLINE
  5
195
100
AcDbEntity
  8
Capa_1
 62
7
100
AcDbPolyline
 90
1
 70
1
 10
406.277010
 20
40.895081
 30
0.0
  0
SPLINE
  5
196
100
AcDbEntity
  8
Capa_1
 62
7
100
AcDbSpline
 70
8
 71
3
 72
8
 73
4
 74
0
 40
0
 40
0
 40
0
 40
0
 40
1
 40
1
 40
1
 40
1
 10
438.277120
 20
40.895081
 30
0.0
 10
440.277120
 20
40.895081
 30
0.0
 10
441.276820
 20
40.586572
 30
0.0
 10
443.276820
 20
40.586572
 30
0.0
  0
SPLINE
  5
197
100
AcDbEntity
  8
Capa_1
 62
7
100
AcDbSpline
 70
8
 71
3
 72
8
 73
4
 74
0
 40
0
 40
0
 40
0
 40
0
 40
1
 40
1
 40
1
 40
1
 10
443.276820
 20
40.586572
 30
0.0
 10
441.276820
 20
40.586572
 30
0.0
 10
440.277120
 20
40.277547
 30
0.0
 10
438.277120
 20
40.277547
 30
0.0
  0
SPLINE
  5
198
100
AcDbEntity
  8
Capa_1
 62
7
100
AcDbSpline
 70
8
 71
3
 72
8
 73
4
 74
0
 40
0
 40
0
 40
0
 40
0
 40
1
 40
1
 40
1
 40
1
 10
438.277120
 20
40.277547
 30
0.0
 10
436.064100
 20
40.277547
 30
0.0
 10
435.276910
 20
40.586572
 30
0.0
 10
433.276910
 20
40.586572
 30
0.0
  0
SPLINE
  5
199
100
AcDbEntity
  8
Capa_1
 62
7
100
AcDbSpline
 70
8
 71
3
 72
8
 73
4
 74
0
 40
0
 40
0
 40
0
 40
0
 40
1
 40
1
 40
1
 40
1
 10
433.276910
 20
40.586572
 30
0.0
 10
435.276910
 20
40.586572
 30
0.0
 10
436.277120
 20
40.895081
 30
0.0
 10
438.277120
 20
40.895081
 30
0.0
  0
LWPOLYLINE
  5
19a
100
AcDbEntity
  8
Capa_1
 62
7
100
AcDbPolyline
 90
1
 70
1
 10
422.277070
 20
40.895081
 30
0.0
  0
SPLINE
  5
19b
100
AcDbEntity
  8
Capa_1
 62
7
100
AcDbSpline
 70
8
 71
3
 72
8
 73
4
 74
0
 40
0
 40
0
 40
0
 40
0
 40
1
 40
1
 40
1
 40
1
 10
398.276980
 20
38.895203
 30
0.0
 10
400.276980
 20
38.895203
 30
0.0
 10
401.277190
 20
38.586178
 30
0.0
 10
403.277190
 20
38.586178
 30
0.0
  0
SPLINE
  5
19c
100
AcDbEntity
  8
Capa_1
 62
7
100
AcDbSpline
 70
8
 71
3
 72
8
 73
4
 74
0
 40
0
 40
0
 40
0
 40
0
 40
1
 40
1
 40
1
 40
1
 10
403.277190
 20
38.586178
 30
0.0
 10
401.277190
 20
38.586178
 30
0.0
 10
400.276980
 20
38.277669
 30
0.0
 10
398.276980
 20
38.277669
 30
0.0
  0
SPLINE
  5
19d
100
AcDbEntity
  8
Capa_1
 62
7
100
AcDbSpline
 70
8
 71
3
 72
8
 73
4
 74
0
 40
0
 40
0
 40
0
 40
0
 40
1
 40
1
 40
1
 40
1
 10
398.276980
 20
38.277669
 30
0.0
 10
396.063950
 20
38.277669
 30
0.0
 10
395.276770
 20
38.586178
 30
0.0
 10
393.276770
 20
38.586178
 30
0.0
  0
SPLINE
  5
19e
100
AcDbEntity
  8
Capa_1
 62
7
100
AcDbSpline
 70
8
 71
3
 72
8
 73
4
 74
0
 40
0
 40
0
 40
0
 40
0
 40
1
 40
1
 40
1
 40
1
 10
393.276770
 20
38.586178
 30
0.0
 10
395.276770
 20
38.586178
 30
0.0
 10
396.276980
 20
38.895203
 30
0.0
 10
398.276980
 20
38.895203
 30
0.0
  0
LWPOLYLINE
  5
19f
100
AcDbEntity
  8
Capa_1
 62
7
100
AcDbPolyline
 90
1
 70
1
 10
438.277120
 20
40.895081
 30
0.0
  0
SPLINE
  5
1a0
100
AcDbEntity
  8
Capa_1
 62
7
100
AcDbSpline
 70
8
 71
3
 72
8
 73
4
 74
0
 40
0
 40
0
 40
0
 40
0
 40
1
 40
1
 40
1
 40
1
 10
414.277040
 20
38.895203
 30
0.0
 10
416.277040
 20
38.895203
 30
0.0
 10
417.276730
 20
38.586178
 30
0.0
 10
419.276730
 20
38.586178
 30
0.0
  0
SPLINE
  5
1a1
100
AcDbEntity
  8
Capa_1
 62
7
100
AcDbSpline
 70
8
 71
3
 72
8
 73
4
 74
0
 40
0
 40
0
 40
0
 40
0
 40
1
 40
1
 40
1
 40
1
 10
419.276730
 20
38.586178
 30
0.0
 10
417.276730
 20
38.586178
 30
0.0
 10
416.277040
 20
38.277669
 30
0.0
 10
414.277040
 20
38.277669
 30
0.0
  0
SPLINE
  5
1a2
100
AcDbEntity
  8
Capa_1
 62
7
100
AcDbSpline
 70
8
 71
3
 72
8
 73
4
 74
0
 40
0
 40
0
 40
0
 40
0
 40
1
 40
1
 40
1
 40
1
 10
414.277040
 20
38.277669
 30
0.0
 10
412.064010
 20
38.277669
 30
0.0
 10
411.276830
 20
38.586178
 30
0.0
 10
409.276830
 20
38.586178
 30
0.0
  0
SPLINE
  5
1a3
100
AcDbEntity
  8
Capa_1
 62
7
100
AcDbSpline
 70
8
 71
3
 72
8
 73
4
 74
0
 40
0
 40
0
 40
0
 40
0
 40
1
 40
1
 40
1
 40
1
 10
409.276830
 20
38.586178
 30
0.0
 10
411.276830
 20
38.586178
 30
0.0
 10
412.277040
 20
38.895203
 30
0.0
 10
414.277040
 20
38.895203
 30
0.0
  0
LWPOLYLINE
  5
1a4
100
AcDbEntity
  8
Capa_1
 62
7
100
AcDbPolyline
 90
1
 70
1
 10
398.276980
 20
38.895203
 30
0.0
  0
SPLINE
  5
1a5
100
AcDbEntity
  8
Capa_1
 62
7
100
AcDbSpline
 70
8
 71
3
 72
8
 73
4
 74
0
 40
0
 40
0
 40
0
 40
0
 40
1
 40
1
 40
1
 40
1
 10
430.277100
 20
38.895203
 30
0.0
 10
432.277100
 20
38.895203
 30
0.0
 10
433.276790
 20
38.586178
 30
0.0
 10
435.276790
 20
38.586178
 30
0.0
  0
SPLINE
  5
1a6
100
AcDbEntity
  8
Capa_1
 62
7
100
AcDbSpline
 70
8
 71
3
 72
8
 73
4
 74
0
 40
0
 40
0
 40
0
 40
0
 40
1
 40
1
 40
1
 40
1
 10
435.276790
 20
38.586178
 30
0.0
 10
433.276790
 20
38.586178
 30
0.0
 10
432.277100
 20
38.277669
 30
0.0
 10
430.277100
 20
38.277669
 30
0.0
  0
SPLINE
  5
1a7
100
AcDbEntity
  8
Capa_1
 62
7
100
AcDbSpline
 70
8
 71
3
 72
8
 73
4
 74
0
 40
0
 40
0
 40
0
 40
0
 40
1
 40
1
 40
1
 40
1
 10
430.277100
 20
38.277669
 30
0.0
 10
428.064080
 20
38.277669
 30
0.0
 10
427.276880
 20
38.586178
 30
0.0
 10
425.276880
 20
38.586178
 30
0.0
  0
SPLINE
  5
1a8
100
AcDbEntity
  8
Capa_1
 62
7
100
AcDbSpline
 70
8
 71
3
 72
8
 73
4
 74
0
 40
0
 40
0
 40
0
 40
0
 40
1
 40
1
 40
1
 40
1
 10
425.276880
 20
38.586178
 30
0.0
 10
427.276880
 20
38.586178
 30
0.0
 10
428.277100
 20
38.895203
 30
0.0
 10
430.277100
 20
38.895203
 30
0.0
  0
LWPOLYLINE
  5
1a9
100
AcDbEntity
  8
Capa_1
 62
7
100
AcDbPolyline
 90
1
 70
1
 10
414.277040
 20
38.895203
 30
0.0
  0
SPLINE
  5
1aa
100
AcDbEntity
  8
Capa_1
 62
7
100
AcDbSpline
 70
8
 71
3
 72
8
 73
4
 74
0
 40
0
 40
0
 40
0
 40
0
 40
1
 40
1
 40
1
 40
1
 10
406.277010
 20
36.895325
 30
0.0
 10
408.277010
 20
36.895325
 30
0.0
 10
409.277220
 20
36.586300
 30
0.0
 10
411.277220
 20
36.586300
 30
0.0
  0
SPLINE
  5
1ab
100
AcDbEntity
  8
Capa_1
 62
7
100
AcDbSpline
 70
8
 71
3
 72
8
 73
4
 74
0
 40
0
 40
0
 40
0
 40
0
 40
1
 40
1
 40
1
 40
1
 10
411.277220
 20
36.586300
 30
0.0
 10
409.277220
 20
36.586301
 30
0.0
 10
408.277010
 20
36.277791
 30
0.0
 10
406.277010
 20
36.277791
 30
0.0
  0
SPLINE
  5
1ac
100
AcDbEntity
  8
Capa_1
 62
7
100
AcDbSpline
 70
8
 71
3
 72
8
 73
4
 74
0
 40
0
 40
0
 40
0
 40
0
 40
1
 40
1
 40
1
 40
1
 10
406.277010
 20
36.277791
 30
0.0
 10
404.063980
 20
36.277791
 30
0.0
 10
403.276800
 20
36.586300
 30
0.0
 10
401.276800
 20
36.586300
 30
0.0
  0
SPLINE
  5
1ad
100
AcDbEntity
  8
Capa_1
 62
7
100
AcDbSpline
 70
8
 71
3
 72
8
 73
4
 74
0
 40
0
 40
0
 40
0
 40
0
 40
1
 40
1
 40
1
 40
1
 10
401.276800
 20
36.586300
 30
0.0
 10
403.276800
 20
36.586301
 30
0.0
 10
404.277010
 20
36.895325
 30
0.0
 10
406.277010
 20
36.895325
 30
0.0
  0
LWPOLYLINE
  5
1ae
100
AcDbEntity
  8
Capa_1
 62
7
100
AcDbPolyline
 90
1
 70
1
 10
430.277100
 20
38.895203
 30
0.0
  0
SPLINE
  5
1af
100
AcDbEntity
  8
Capa_1
 62
7
100
AcDbSpline
 70
8
 71
3
 72
8
 73
4
 74
0
 40
0
 40
0
 40
0
 40
0
 40
1
 40
1
 40
1
 40
1
 10
422.277070
 20
36.895325
 30
0.0
 10
424.277060
 20
36.895325
 30
0.0
 10
425.276760
 20
36.586301
 30
0.0
 10
427.276760
 20
36.586300
 30
0.0
  0
SPLINE
  5
1b0
100
AcDbEntity
  8
Capa_1
 62
7
100
AcDbSpline
 70
8
 71
3
 72
8
 73
4
 74
0
 40
0
 40
0
 40
0
 40
0
 40
1
 40
1
 40
1
 40
1
 10
427.276760
 20
36.586300
 30
0.0
 10
425.276760
 20
36.586301
 30
0.0
 10
424.277060
 20
36.277791
 30
0.0
 10
422.277070
 20
36.277791
 30
0.0
  0
SPLINE
  5
1b1
100
AcDbEntity
  8
Capa_1
 62
7
100
AcDbSpline
 70
8
 71
3
 72
8
 73
4
 74
0
 40
0
 40
0
 40
0
 40
0
 40
1
 40
1
 40
1
 40
1
 10
422.277070
 20
36.277791
 30
0.0
 10
420.064040
 20
36.277791
 30
0.0
 10
419.276860
 20
36.586301
 30
0.0
 10
417.276860
 20
36.586300
 30
0.0
  0
SPLINE
  5
1b2
100
AcDbEntity
  8
Capa_1
 62
7
100
AcDbSpline
 70
8
 71
3
 72
8
 73
4
 74
0
 40
0
 40
0
 40
0
 40
0
 40
1
 40
1
 40
1
 40
1
 10
417.276860
 20
36.586300
 30
0.0
 10
419.276860
 20
36.586301
 30
0.0
 10
420.277070
 20
36.895325
 30
0.0
 10
422.277070
 20
36.895325
 30
0.0
  0
LWPOLYLINE
  5
1b3
100
AcDbEntity
  8
Capa_1
 62
7
100
AcDbPolyline
 90
1
 70
1
 10
406.277010
 20
36.895325
 30
0.0
  0
SPLINE
  5
1b4
100
AcDbEntity
  8
Capa_1
 62
7
100
AcDbSpline
 70
8
 71
3
 72
8
 73
4
 74
0
 40
0
 40
0
 40
0
 40
0
 40
1
 40
1
 40
1
 40
1
 10
414.277040
 20
34.894930
 30
0.0
 10
416.277040
 20
34.894930
 30
0.0
 10
417.276730
 20
34.586423
 30
0.0
 10
419.276730
 20
34.586422
 30
0.0
  0
SPLINE
  5
1b5
100
AcDbEntity
  8
Capa_1
 62
7
100
AcDbSpline
 70
8
 71
3
 72
8
 73
4
 74
0
 40
0
 40
0
 40
0
 40
0
 40
1
 40
1
 40
1
 40
1
 10
419.276730
 20
34.586422
 30
0.0
 10
417.276730
 20
34.586423
 30
0.0
 10
416.277040
 20
34.277397
 30
0.0
 10
414.277040
 20
34.277397
 30
0.0
  0
SPLINE
  5
1b6
100
AcDbEntity
  8
Capa_1
 62
7
100
AcDbSpline
 70
8
 71
3
 72
8
 73
4
 74
0
 40
0
 40
0
 40
0
 40
0
 40
1
 40
1
 40
1
 40
1
 10
414.277040
 20
34.277397
 30
0.0
 10
412.064010
 20
34.277397
 30
0.0
 10
411.276830
 20
34.586423
 30
0.0
 10
409.276830
 20
34.586422
 30
0.0
  0
SPLINE
  5
1b7
100
AcDbEntity
  8
Capa_1
 62
7
100
AcDbSpline
 70
8
 71
3
 72
8
 73
4
 74
0
 40
0
 40
0
 40
0
 40
0
 40
1
 40
1
 40
1
 40
1
 10
409.276830
 20
34.586422
 30
0.0
 10
411.276830
 20
34.586423
 30
0.0
 10
412.277040
 20
34.894930
 30
0.0
 10
414.277040
 20
34.894930
 30
0.0
  0
LWPOLYLINE
  5
1b8
100
AcDbEntity
  8
Capa_1
 62
7
100
AcDbPolyline
 90
1
 70
1
 10
422.277070
 20
36.895325
 30
0.0
  0
LWPOLYLINE
  5
1b9
100
AcDbEntity
  8
Capa_1
 62
7
100
AcDbPolyline
 90
1
 70
1
 10
414.277040
 20
34.894930
 30
0.0
  0
ENDSEC
  0
SECTION
  2
OBJECTS
  0
DICTIONARY
  5
C
330
0
100
AcDbDictionary
  3
ACAD_GROUP
350
D
  3
ACAD_MLINESTYLE
350
17
  0
DICTIONARY
  5
D
330
C
100
AcDbDictionary
  0
DICTIONARY
  5
1A
330
C
100
AcDbDictionary
  0
DICTIONARY
  5
17
330
C
100
AcDbDictionary
  3
STANDARD
350
18
  0
DICTIONARY
  5
19
330
C
100
AcDbDictionary
  0
ENDSEC
  0
EOF
